<svg width="175" height="37" viewBox="0 0 175 37" fill="none" xmlns="http://www.w3.org/2000/svg">
<g clip-path="url(#clip0_5530_7886)">
<path d="M85.6179 6.29761H89.9505C89.9779 6.38841 89.996 6.48178 90.0044 6.57626C90.0044 10.4954 90.0044 14.4235 90.0044 18.3426C90.043 20.2171 89.3942 22.041 88.1804 23.4701C86.9666 24.8992 85.2718 25.8346 83.4156 26.0999C82.0903 26.4007 80.7127 26.385 79.3946 26.0539C78.0765 25.7228 76.855 25.0857 75.8291 24.1942C75.0268 23.4942 74.3832 22.6308 73.9414 21.662C73.4996 20.6931 73.2698 19.6411 73.2673 18.5763C73.1685 14.5043 73.2673 10.4324 73.2673 6.32457H77.6179V6.89985C77.6179 10.2976 77.6179 13.6954 77.6179 17.0841C77.5912 17.7989 77.6516 18.5143 77.7977 19.2145C77.9517 20.1303 78.4411 20.9561 79.1705 21.531C79.9 22.1059 80.8172 22.3888 81.7437 22.3246C82.6528 22.3056 83.5246 21.9599 84.1997 21.3509C84.8748 20.7418 85.308 19.91 85.4201 19.0077C85.5453 18.359 85.6085 17.6999 85.6089 17.0392C85.6089 13.6594 85.6089 10.2796 85.6089 6.89985L85.6179 6.29761Z" fill="white"/>
<path d="M120.935 13.0843C120.395 13.8664 119.856 14.6574 119.29 15.4664L118.912 15.2057C117.968 14.5262 116.854 14.1218 115.694 14.0372C115.301 14.0176 114.907 14.057 114.526 14.154C114.264 14.2144 114.03 14.3587 113.858 14.5648C113.686 14.7708 113.586 15.0275 113.573 15.2956C113.524 15.5684 113.578 15.8497 113.724 16.0853C113.87 16.3209 114.098 16.4943 114.364 16.572C115.263 16.8956 116.108 17.1473 116.998 17.4079C118.039 17.6635 119.019 18.1217 119.883 18.7563C120.454 19.2146 120.86 19.8453 121.043 20.554C121.24 21.1591 121.304 21.8001 121.229 22.4323C121.154 23.0646 120.943 23.6729 120.609 24.2152C120.276 24.7575 119.828 25.2206 119.298 25.5725C118.767 25.9244 118.166 26.1565 117.537 26.2529C116.125 26.5484 114.661 26.4888 113.277 26.0793C111.893 25.6699 110.633 24.9234 109.609 23.9068C109.609 23.9068 109.609 23.8349 109.555 23.8079L111.47 21.4529C111.946 21.8034 112.368 22.154 112.863 22.4686C113.619 23.0313 114.514 23.3792 115.452 23.4754C115.961 23.5046 116.472 23.4468 116.962 23.3046C117.204 23.2196 117.415 23.0646 117.569 22.8593C117.723 22.6539 117.812 22.4075 117.826 22.1512C117.839 21.895 117.776 21.6405 117.645 21.4202C117.513 21.1998 117.319 21.0235 117.088 20.9136C116.297 20.6079 115.479 20.3922 114.679 20.1136C113.879 19.8349 113.052 19.5652 112.27 19.2147C111.7 18.9674 111.208 18.5716 110.844 18.0687C110.481 17.5658 110.259 16.9743 110.202 16.3563C109.986 15.3706 110.142 14.3398 110.639 13.462C111.137 12.5843 111.942 11.9215 112.899 11.6012C113.569 11.3577 114.272 11.2154 114.984 11.1787C116.946 11.0608 118.889 11.6227 120.485 12.7697C120.593 12.8417 120.701 12.9315 120.8 13.0124L120.935 13.0843Z" fill="white"/>
<path d="M40.9617 5.07532H44.1078V26.0371H40.9977V23.9427C40.9084 23.9913 40.8241 24.0485 40.746 24.1135C38.7954 26.7382 34.4539 26.918 31.946 25.0124C29.4381 23.1068 28.6561 20.6798 28.8449 17.7135C28.8776 16.3314 29.3172 14.9896 30.1086 13.8561C30.9 12.7225 32.0081 11.8475 33.2943 11.3405C34.54 10.7274 35.9577 10.558 37.3128 10.8604C38.6679 11.1628 39.8791 11.9189 40.746 13.0034L40.9617 13.2191V5.07532ZM41.0876 18.5585C40.9977 18.0191 40.9527 17.4708 40.8179 16.9495C40.6212 16.0702 40.1584 15.2729 39.4926 14.6659C38.8268 14.0588 37.9903 13.6715 37.0966 13.5567C36.203 13.4418 35.2957 13.6048 34.498 14.0237C33.7003 14.4426 33.0509 15.0969 32.6381 15.8978C32.0506 16.9823 31.8388 18.2308 32.0359 19.4483C32.1254 20.1118 32.3581 20.7479 32.7177 21.3125C33.0774 21.8772 33.5555 22.357 34.1189 22.7186C34.6823 23.0802 35.3175 23.3151 35.9807 23.407C36.6438 23.4988 37.319 23.4455 37.9595 23.2506C38.9053 22.8928 39.7156 22.248 40.2765 21.4065C40.8375 20.5651 41.1211 19.5692 41.0876 18.5585Z" fill="white"/>
<path d="M95.5236 23.9697V31.5202H92.4135V11.0259H95.5146V13.5517C95.5849 13.4904 95.651 13.4243 95.7123 13.3539C97.9865 10.0371 101.663 10.3787 104 11.7C105.019 12.2545 105.883 13.0563 106.511 14.0317C107.139 15.0071 107.512 16.1248 107.595 17.282C107.883 19.9787 107.326 22.4596 105.258 24.3921C104.658 25.0031 103.941 25.4884 103.151 25.8196C102.361 26.1508 101.513 26.3214 100.656 26.3214C99.7994 26.3214 98.9512 26.1508 98.161 25.8196C97.3709 25.4884 96.6546 25.0031 96.0539 24.3921C95.9105 24.2361 95.7811 24.0676 95.6674 23.8888L95.5236 23.9697ZM95.3528 18.5135H95.4696C95.4696 18.7832 95.4696 19.0438 95.5326 19.3135C95.5893 20.1305 95.8713 20.9158 96.3473 21.5822C96.8234 22.2487 97.4747 22.7701 98.2292 23.0888C98.9693 23.4082 99.785 23.5103 100.581 23.3829C101.377 23.2556 102.12 22.9041 102.724 22.3697C103.722 21.4715 104.336 20.2232 104.438 18.884C104.54 17.5449 104.123 16.2179 103.272 15.1787C102.814 14.5932 102.213 14.1361 101.527 13.8517C100.84 13.5674 100.092 13.4655 99.3547 13.556C98.6173 13.6465 97.9158 13.9262 97.3185 14.3681C96.7212 14.81 96.2484 15.3989 95.946 16.0775C95.6469 16.8555 95.4183 17.6587 95.2629 18.4775L95.3528 18.5135Z" fill="white"/>
<path d="M20.0448 31.0348V36.2932C17.8307 36.6138 15.5739 36.4669 13.4201 35.8617C9.87301 34.9654 6.69339 32.986 4.32347 30.1988C1.91335 27.3715 0.430926 23.8715 0.0771819 20.1733C-0.276562 16.4751 0.515485 12.7575 2.34594 9.52464C4.08306 6.45944 6.69253 3.98009 9.84251 2.4019C12.9925 0.823709 16.5407 0.217973 20.0358 0.661721V5.92914C18.034 5.58914 15.9797 5.73857 14.0482 6.36467C12.1167 6.99077 10.3654 8.07494 8.94369 9.52464C7.76087 10.6831 6.82646 12.0704 6.19747 13.602C5.56848 15.1335 5.2581 16.7771 5.28527 18.4325C5.24391 20.2954 5.62709 22.1433 6.40578 23.8362C7.18446 25.529 8.33822 27.0224 9.77965 28.2033C11.1738 29.4067 12.8181 30.285 14.5935 30.7747C16.3688 31.2644 18.2309 31.3532 20.0448 31.0348Z" fill="#5236FF"/>
<path d="M12.4764 18.2528C12.4703 17.2605 12.6844 16.2792 13.1034 15.3797C13.5224 14.4802 14.1358 13.6849 14.8994 13.0511C15.663 12.4174 16.5577 11.961 17.519 11.715C18.4803 11.4689 19.4843 11.4392 20.4585 11.6281C21.7561 11.8732 22.9514 12.4991 23.8922 13.4259C24.8365 14.3632 25.4815 15.5596 25.7455 16.8637C26.0096 18.1678 25.8807 19.5209 25.3753 20.7517C24.8779 21.9803 24.0275 23.0339 22.9316 23.7794C21.8357 24.5249 20.5434 24.929 19.218 24.9405C18.3353 24.9438 17.4607 24.7724 16.6446 24.4361C15.8285 24.0998 15.087 23.6052 14.463 22.9809C13.8344 22.3573 13.3364 21.6148 12.9978 20.7967C12.6642 19.9895 12.4873 19.1262 12.4764 18.2528Z" fill="white"/>
<path d="M61.6538 19.9247H49.9684C49.9693 20.372 50.0579 20.8148 50.2291 21.2281C50.449 21.6421 50.7556 22.0039 51.128 22.2888C52.2055 23.1756 53.5705 23.6369 54.9651 23.5855C56.3597 23.5342 57.6871 22.9737 58.6965 22.0101C58.7504 21.9562 58.8044 21.8843 58.8853 21.7854L60.7639 23.8348C60.5696 23.964 60.3835 24.1051 60.2066 24.2573C57.51 26.7112 52.3235 27.1517 49.3302 24.473C48.5611 23.7791 47.9414 22.936 47.5087 21.9948C47.076 21.0537 46.8394 20.0344 46.8134 18.9989C46.6121 17.1395 47.1208 15.2727 48.2376 13.7725C49.3544 12.2723 50.9968 11.2495 52.8358 10.909C53.9006 10.6717 55.0035 10.662 56.0723 10.8804C57.1411 11.0988 58.1517 11.5404 59.0381 12.1764C59.8198 12.7134 60.4657 13.4251 60.9244 14.2552C61.3831 15.0853 61.6421 16.0108 61.6808 16.9584C61.7077 17.9292 61.6538 18.891 61.6538 19.9247ZM49.9684 17.4168H58.4718C58.6516 15.2056 56.8987 13.5337 54.4358 13.5157C51.9729 13.4977 49.8426 15.2685 49.9684 17.4168Z" fill="white"/>
<path d="M163.137 19.9068C163.161 20.3794 163.285 20.8416 163.5 21.263C163.715 21.6844 164.018 22.0554 164.387 22.3517C165.51 23.2322 166.92 23.6637 168.344 23.5623C169.768 23.461 171.103 22.8341 172.09 21.8034L173.96 23.8439C173.761 23.9684 173.572 24.1066 173.393 24.2573C170.742 26.7113 165.519 27.1517 162.517 24.4731C161.748 23.7818 161.128 22.9402 160.697 22.0002C160.266 21.0603 160.031 20.0419 160.009 19.0079C159.807 17.1511 160.313 15.2865 161.427 13.7868C162.54 12.287 164.178 11.2625 166.014 10.918C167.08 10.6777 168.184 10.6664 169.255 10.8849C170.326 11.1034 171.338 11.5467 172.225 12.1854C173.006 12.7205 173.652 13.4306 174.111 14.2592C174.57 15.0878 174.829 16.0121 174.867 16.9585C174.93 17.9113 174.867 18.8731 174.867 19.8888L163.137 19.9068ZM171.667 17.4169C171.766 15.0978 169.987 13.4528 167.515 13.5158C165.043 13.5787 162.957 15.3854 163.173 17.4169H171.667Z" fill="white"/>
<path d="M151.802 26.0461H148.989V24.1135C148.827 24.2663 148.728 24.3383 148.647 24.4281C147.697 25.3527 146.491 25.9723 145.186 26.2078C143.881 26.4432 142.535 26.2836 141.322 25.7495C140.273 25.2852 139.433 24.4513 138.96 23.4068C138.488 22.3623 138.416 21.1803 138.76 20.0866C138.888 19.596 139.122 19.1393 139.445 18.7482C139.768 18.357 140.172 18.0408 140.629 17.8214C141.923 17.1934 143.355 16.9028 144.791 16.9765H148.629C148.751 16.572 148.778 16.1449 148.708 15.7284C148.638 15.3118 148.472 14.9172 148.224 14.5752C147.976 14.2333 147.652 13.9532 147.278 13.757C146.904 13.5607 146.49 13.4536 146.068 13.4439C144.662 13.327 143.255 13.6405 142.032 14.3427C141.717 14.5135 141.411 14.7113 141.052 14.918L139.587 12.9225C140.414 12.4551 141.178 11.9517 142.014 11.5832C143.788 10.7907 145.769 10.586 147.668 10.9989C148.832 11.1497 149.899 11.7266 150.662 12.6181C151.426 13.5096 151.832 14.6524 151.802 15.8259C151.874 19.1877 151.802 22.5495 151.802 25.9113C151.806 25.9561 151.806 26.0013 151.802 26.0461ZM148.656 19.2147C147.173 19.2147 145.753 19.2147 144.324 19.2147C143.96 19.2309 143.6 19.2974 143.254 19.4124C142.833 19.4913 142.453 19.7136 142.178 20.0414C141.902 20.3691 141.749 20.7821 141.744 21.2102C141.689 21.6584 141.794 22.1118 142.041 22.4901C142.287 22.8685 142.66 23.1474 143.092 23.2776C143.705 23.5216 144.363 23.6349 145.022 23.6101C145.682 23.5854 146.328 23.4231 146.922 23.1338C147.385 22.947 147.79 22.639 148.094 22.2421C148.397 21.8452 148.588 21.3739 148.647 20.8776C148.701 20.3472 148.656 19.7989 148.656 19.2147Z" fill="white"/>
<path d="M135.11 15.4124C131.955 12.7158 128.953 13.6686 127.416 15.4124C126.656 16.3338 126.261 17.5027 126.308 18.6964C126.354 19.89 126.838 21.0248 127.668 21.8843C128.155 22.4139 128.756 22.8259 129.425 23.0891C130.095 23.3523 130.815 23.4597 131.533 23.4034C132.969 23.2693 134.299 22.5868 135.245 21.4978L137.043 23.5203C133.672 27.2956 127.632 27.2147 124.629 23.3765C123.836 22.3175 123.323 21.0753 123.138 19.7652C122.953 18.4551 123.102 17.1194 123.571 15.8822C124.04 14.6449 124.813 13.5461 125.82 12.6877C126.827 11.8293 128.035 11.2392 129.33 10.972C130.625 10.6662 131.974 10.6842 133.26 11.0245C134.546 11.3647 135.728 12.0166 136.701 12.9225L136.98 13.1383L135.11 15.4124Z" fill="white"/>
<path d="M157.636 26.046H154.499V5.08423H157.618L157.636 26.046Z" fill="white"/>
</g>
<defs>
<clipPath id="clip0_5530_7886">
<rect width="174.858" height="36" fill="white" transform="translate(0 0.5)"/>
</clipPath>
</defs>
</svg>
