<svg width="175" height="36" viewBox="0 0 175 36" fill="none" xmlns="http://www.w3.org/2000/svg">
<path d="M20.0499 30.5144V35.7729C17.7306 35.7729 15.5791 35.9465 13.4252 35.3414C9.87813 34.4451 6.69852 32.4657 4.32859 29.6785C1.91847 26.8512 0.436053 23.3512 0.0823088 19.653C-0.271435 15.9548 0.520612 12.2372 2.35107 9.00433C4.08819 5.93912 6.69765 3.45978 9.84764 1.88159C12.9976 0.303393 16.5051 -0.0202764 20.041 0.141405V5.40882C18.0051 5.40882 15.9848 5.21825 14.0533 5.84435C12.1218 6.47045 10.3705 7.55463 8.94882 9.00433C7.76599 10.1628 6.83159 11.5501 6.2026 13.0816C5.57361 14.6132 5.26323 16.2568 5.29039 17.9122C5.24904 19.7751 5.63222 21.623 6.41091 23.3158C7.18959 25.0087 8.34335 26.5021 9.78478 27.683C11.1789 28.8864 12.8232 29.7647 14.5986 30.2544C16.374 30.7441 18.0051 30.4797 20.0499 30.5144Z" fill="#5236FF"/>
<path d="M12.4816 17.7325C12.4754 16.7402 12.6895 15.7589 13.1085 14.8593C13.5275 13.9598 14.1409 13.1645 14.9045 12.5308C15.6681 11.897 16.5628 11.4407 17.5242 11.1946C18.4855 10.9485 19.4894 10.9188 20.4636 11.1077C21.7612 11.3528 22.9566 11.9787 23.8973 12.9055C24.8416 13.8428 25.4866 15.0392 25.7507 16.3433C26.0147 17.6474 25.8858 19.0005 25.3805 20.2313C24.883 21.4599 24.0326 22.5135 22.9367 23.259C21.8408 24.0046 20.5486 24.4086 19.2231 24.4201C18.3405 24.4234 17.4658 24.252 16.6497 23.9157C15.8336 23.5794 15.0921 23.0848 14.4681 22.4605C13.8396 21.8369 13.3415 21.0944 13.0029 20.2763C12.6694 19.4691 12.4924 18.6058 12.4816 17.7325Z" fill="#071B2C"/>
<path d="M35.3862 25.6432C31.1707 25.6432 28.8848 22.6448 28.8848 17.9543C28.8848 13.2934 31.141 10.295 35.2081 10.295C37.8205 10.295 39.3939 11.5419 40.0471 12.8778H40.1361V5.45605H43.3126V25.3463H40.3736V22.912H40.2549C39.5424 24.6041 37.9096 25.6432 35.3862 25.6432ZM32.091 17.9543C32.091 21.6057 33.2487 22.912 36.0987 22.912C38.7111 22.912 40.1361 21.7542 40.1361 19.2902V16.648C40.1361 14.184 38.7111 13.0262 36.0987 13.0262C33.2784 13.0262 32.091 14.3324 32.091 17.9543Z" fill="#071B2C"/>
<path d="M52.5872 25.6432C47.7185 25.6432 45.4326 22.5557 45.4326 17.9543C45.4326 13.3825 48.1638 10.295 52.5575 10.295C56.5355 10.295 59.3261 12.67 59.3261 16.7074C59.3261 17.4793 59.237 18.2808 59.148 18.7261H48.431C48.5497 21.4276 49.5294 22.7932 52.6169 22.7932C55.0809 22.7932 56.0309 21.962 56.0309 20.6261V20.3886H59.2074V20.6558C59.2074 23.6838 56.5652 25.6432 52.5872 25.6432ZM52.4981 12.9966C49.7075 12.9966 48.6388 14.3028 48.4607 16.5887H56.2683C56.3871 14.0653 55.0215 12.9966 52.4981 12.9966Z" fill="#071B2C"/>
<path d="M76.2694 25.6432C70.8663 25.6432 67.8086 22.6448 67.8086 17.5683V5.45605H70.9851V17.5683C70.9851 21.1604 72.3507 22.5557 76.2694 22.5557C80.1584 22.5557 81.524 21.1604 81.524 17.5683V5.45605H84.7301V17.5683C84.7301 22.6448 81.6427 25.6432 76.2694 25.6432Z" fill="#071B2C"/>
<path d="M91.0876 30.4822H87.9111V10.5919H90.8205V13.0262H90.9689C91.6517 11.3044 93.3438 10.295 95.8969 10.295C100.053 10.295 102.339 13.2934 102.339 17.984C102.339 22.6448 100.112 25.6432 96.1047 25.6432C93.4626 25.6432 91.8298 24.426 91.1767 23.0604H91.0876V30.4822ZM91.0876 19.2902C91.0876 21.7542 92.5126 22.912 95.1251 22.912C97.9453 22.912 99.1328 21.6058 99.1328 17.984C99.1328 14.3325 97.975 13.0262 95.1251 13.0262C92.5126 13.0262 91.0876 14.184 91.0876 16.648V19.2902Z" fill="#071B2C"/>
<path d="M112.11 25.6432C107.805 25.6432 105.549 23.951 105.549 20.3589V20.2995H108.637V20.8339C108.637 22.437 109.349 23.0307 112.169 23.0307C114.544 23.0307 114.99 22.4964 114.99 21.398C114.99 20.2105 114.277 19.8542 112.11 19.4683L109.824 19.0824C107.182 18.6074 105.52 17.4199 105.52 14.7481C105.52 12.0763 107.716 10.295 111.576 10.295C115.049 10.295 117.661 12.0169 117.661 15.3715V15.6387H114.604V15.2824C114.604 13.9168 114.129 12.9372 111.487 12.9372C109.141 12.9372 108.577 13.5606 108.577 14.6887C108.577 15.8168 109.112 16.1434 111.19 16.559L113.683 17.034C116.533 17.598 118.018 18.8746 118.018 21.3089C118.018 24.0401 115.851 25.6432 112.11 25.6432Z" fill="#071B2C"/>
<path d="M128.412 25.6729C123.811 25.6729 121.198 22.5557 121.198 17.984C121.198 13.3825 123.9 10.295 128.531 10.295C132.42 10.295 135.092 12.6997 135.092 16.2324V16.4996H131.915V16.3215C131.915 14.1543 130.787 13.1747 128.323 13.1747C125.473 13.1747 124.375 14.7778 124.375 17.984C124.375 21.1901 125.473 22.7636 128.323 22.7636C130.787 22.7636 131.915 21.8136 131.915 19.6464V19.4683H135.092V19.7355C135.092 23.2385 132.39 25.6729 128.412 25.6729Z" fill="#071B2C"/>
<path d="M142.963 25.6432C140.321 25.6432 138.272 24.2776 138.272 21.6948C138.272 19.2605 140.054 17.984 143.2 17.5387L148.366 16.7668V15.9652C148.366 13.7684 147.357 13.1153 145.041 13.1153C142.696 13.1153 141.776 13.8575 141.776 15.8168V16.2621H138.688V15.9652C138.688 12.67 141.271 10.295 145.219 10.295C149.346 10.295 151.424 12.7887 151.424 16.3809V25.3463H148.455V23.0307H148.307C147.446 24.426 145.754 25.6432 142.963 25.6432ZM141.39 21.4573C141.39 22.6151 142.132 23.0901 144.002 23.0901C146.08 23.0901 148.366 22.2589 148.366 19.2902V19.023L143.675 19.7355C141.983 19.973 141.39 20.3589 141.39 21.4573Z" fill="#071B2C"/>
<path d="M157.811 25.3463H154.604V5.45605H157.811V25.3463Z" fill="#071B2C"/>
<path d="M168.146 25.6432C163.277 25.6432 160.991 22.5557 160.991 17.9543C160.991 13.3825 163.722 10.295 168.116 10.295C172.094 10.295 174.885 12.67 174.885 16.7074C174.885 17.4793 174.796 18.2808 174.707 18.7261H163.99C164.108 21.4276 165.088 22.7932 168.175 22.7932C170.639 22.7932 171.589 21.962 171.589 20.6261V20.3886H174.766V20.6558C174.766 23.6838 172.124 25.6432 168.146 25.6432ZM168.057 12.9966C165.266 12.9966 164.197 14.3028 164.019 16.5887H171.827C171.946 14.0653 170.58 12.9966 168.057 12.9966Z" fill="#071B2C"/>
</svg>
