<?xml version="1.0" encoding="utf-8"?>
<!-- Generator: Adobe Illustrator 25.2.1, SVG Export Plug-In . SVG Version: 6.00 Build 0)  -->
<svg version="1.1" id="Layer_1" xmlns="http://www.w3.org/2000/svg" xmlns:xlink="http://www.w3.org/1999/xlink" x="0px" y="0px"
	 viewBox="0 0 372.3 65.5" style="enable-background:new 0 0 372.3 65.5;" xml:space="preserve">
<style type="text/css">
	.st0{fill:#322733;}
	.st1{fill:#1CBECA;}
</style>
<g>
	<g>
		<path class="st0" d="M105.2,43.9c0-0.5,0.1-0.8,0.4-1.1c0.3-0.3,0.6-0.4,1.1-0.4h6.7c0.4,0,0.8-0.1,1.1-0.4
			c0.3-0.3,0.4-0.7,0.4-1.1V25.6c0-0.5-0.1-0.8-0.4-1.1c-0.3-0.3-0.7-0.4-1.1-0.4h-6.7c-0.5,0-0.8,0.1-1.1,0.4
			c-0.3,0.3-0.4,0.6-0.4,1.1V43.9z M105.2,48.5V60c0,0.5-0.2,0.8-0.7,0.8h-5.9c-0.5,0-0.7-0.3-0.7-0.8V24c0-1.7,0.6-3.2,1.8-4.4
			c1.2-1.2,2.6-1.8,4.4-1.8h12.3c1.7,0,3.2,0.6,4.4,1.8c1.2,1.2,1.8,2.6,1.8,4.4v18.4c0,1.7-0.6,3.2-1.8,4.4
			c-1.2,1.2-2.6,1.8-4.3,1.8H105.2z"/>
		<path class="st0" d="M136.8,24c-0.5,0-0.8,0.1-1.1,0.4c-0.3,0.3-0.4,0.6-0.4,1.1v22.2c0,0.5-0.2,0.8-0.7,0.8h-5.9
			c-0.5,0-0.7-0.3-0.7-0.8V24c0-1.7,0.6-3.2,1.8-4.4c1.2-1.2,2.6-1.8,4.4-1.8h8.4c0.5,0,0.8,0.3,0.8,0.7v4.7c0,0.5-0.3,0.7-0.8,0.7
			H136.8z"/>
		<path class="st0" d="M156.1,24c-0.5,0-0.8,0.1-1.1,0.4c-0.3,0.3-0.4,0.6-0.4,1.1v15.3c0,0.4,0.1,0.8,0.4,1.1
			c0.3,0.3,0.7,0.4,1.1,0.4h6.7c0.5,0,0.8-0.1,1.1-0.4c0.3-0.3,0.4-0.7,0.4-1.1V25.6c0-0.5-0.1-0.8-0.4-1.1
			c-0.3-0.3-0.6-0.4-1.1-0.4H156.1z M153.3,48.5c-1.7,0-3.2-0.6-4.4-1.8c-1.2-1.2-1.8-2.6-1.8-4.4V24c0-1.7,0.6-3.2,1.8-4.4
			c1.2-1.2,2.6-1.8,4.4-1.8h12.3c1.7,0,3.2,0.6,4.4,1.8c1.2,1.2,1.8,2.6,1.8,4.4v18.4c0,1.7-0.6,3.2-1.8,4.4
			c-1.2,1.2-2.6,1.8-4.4,1.8H153.3z"/>
		<path class="st0" d="M207.9,25.6c0-0.5-0.1-0.8-0.4-1.1c-0.3-0.3-0.7-0.4-1.1-0.4H200v23.7c0,0.5-0.2,0.8-0.7,0.8h-5.9
			c-0.5,0-0.7-0.3-0.7-0.8V24h-6.4c-0.4,0-0.8,0.1-1.1,0.4c-0.3,0.3-0.4,0.6-0.4,1.1v22.2c0,0.5-0.3,0.8-0.8,0.8H178
			c-0.5,0-0.7-0.3-0.7-0.8V24c0-1.7,0.6-3.2,1.8-4.4c1.2-1.2,2.6-1.8,4.4-1.8h25.8c1.7,0,3.2,0.6,4.4,1.8c1.2,1.2,1.8,2.6,1.8,4.4
			v23.7c0,0.5-0.3,0.8-0.7,0.8h-5.9c-0.5,0-0.7-0.3-0.7-0.8V25.6z"/>
		<path class="st0" d="M229.7,24c-0.4,0-0.8,0.1-1.1,0.4c-0.3,0.3-0.4,0.6-0.4,1.1v15.3c0,0.4,0.1,0.8,0.4,1.1
			c0.3,0.3,0.7,0.4,1.1,0.4h6.7c0.4,0,0.8-0.1,1.1-0.4c0.3-0.3,0.4-0.7,0.4-1.1V25.6c0-0.5-0.1-0.8-0.4-1.1
			c-0.3-0.3-0.7-0.4-1.1-0.4H229.7z M226.9,48.5c-1.7,0-3.2-0.6-4.3-1.8c-1.2-1.2-1.8-2.6-1.8-4.4V24c0-1.7,0.6-3.2,1.8-4.4
			c1.2-1.2,2.6-1.8,4.3-1.8h12.3c1.7,0,3.2,0.6,4.3,1.8c1.2,1.2,1.8,2.6,1.8,4.4v18.4c0,1.7-0.6,3.2-1.8,4.4
			c-1.2,1.2-2.6,1.8-4.3,1.8H226.9z"/>
		<path class="st1" d="M258.2,40.9c0,0.4,0.1,0.8,0.4,1.1c0.3,0.3,0.7,0.4,1.1,0.4h6.7c0.5,0,0.8-0.1,1.1-0.4
			c0.3-0.3,0.4-0.7,0.4-1.1V25.6c0-0.5-0.2-0.8-0.4-1.1c-0.3-0.3-0.7-0.4-1.1-0.4h-6.7c-0.4,0-0.8-0.1-1.1-0.4
			c-0.3-0.3-0.4-0.7-0.4-1.1V40.9z M269.2,17.9c1.7,0,3.2,0.6,4.4,1.8c1.2,1.2,1.8,2.6,1.8,4.4v18.4c0,1.7-0.6,3.2-1.8,4.4
			c-1.2,1.2-2.6,1.8-4.4,1.8H257c-1.7,0-3.2-0.6-4.4-1.8c-1.2-1.2-1.8-2.6-1.8-4.4v-36c0-0.5,0.2-0.8,0.7-0.8h5.9
			c0.5,0,0.7,0.3,0.7,0.8v11.5H269.2z"/>
		<path class="st1" d="M289.8,24c-0.4,0-0.8,0.1-1.1,0.4c-0.3,0.3-0.4,0.6-0.4,1.1v15.3c0,0.4,0.1,0.8,0.4,1.1
			c0.3,0.3,0.7,0.4,1.1,0.4h6.7c0.4,0,0.8-0.1,1.1-0.4c0.3-0.3,0.4-0.7,0.4-1.1V25.6c0-0.5-0.1-0.8-0.4-1.1
			c-0.3-0.3-0.7-0.4-1.1-0.4H289.8z M287,48.5c-1.7,0-3.2-0.6-4.3-1.8c-1.2-1.2-1.8-2.6-1.8-4.4V24c0-1.7,0.6-3.2,1.8-4.4
			c1.2-1.2,2.6-1.8,4.3-1.8h12.3c1.7,0,3.2,0.6,4.3,1.8c1.2,1.2,1.8,2.6,1.8,4.4v18.4c0,1.7-0.6,3.2-1.8,4.4
			c-1.2,1.2-2.6,1.8-4.3,1.8H287z"/>
		<path class="st1" d="M333.1,18c-0.2-0.1-0.5-0.2-0.7-0.2h-5.6c-0.2,0-0.4,0.1-0.6,0.2c-0.1,0.1-0.3,0.3-0.3,0.5l-17.6,28.7
			c-0.2,0.6-0.2,0.9,0,1.1c0.2,0.1,0.5,0.2,0.7,0.2h5.6c0.2,0,0.5-0.1,0.6-0.3c0.2-0.1,0.3-0.3,0.3-0.5l17.6-28.7
			C333.4,18.5,333.4,18.2,333.1,18"/>
		<path class="st1" d="M308.3,18c0.2-0.1,0.5-0.2,0.7-0.2h5.6c0.2,0,0.5,0.1,0.6,0.2c0.2,0.1,0.3,0.3,0.3,0.5l17.6,28.7
			c0.2,0.6,0.2,0.9,0,1.1c-0.2,0.1-0.5,0.2-0.7,0.2h-5.6c-0.2,0-0.4-0.1-0.6-0.3c-0.1-0.1-0.3-0.3-0.3-0.5l-17.6-28.7
			C308,18.5,308,18.2,308.3,18"/>
		<path class="st1" d="M336.2,48.5h5.6c0.2,0,0.4-0.1,0.6-0.3c0.1-0.1,0.3-0.3,0.3-0.5l17.6-28.7c0.2-0.6,0.2-0.9,0-1.1
			c-0.2-0.1-0.5-0.2-0.7-0.2h-5.6c-0.3,0-0.5,0.1-0.6,0.2c-0.1,0.2-0.3,0.3-0.3,0.5l-17.6,28.7"/>
		<path class="st1" d="M336.2,17.8h5.6c0.2,0,0.4,0.1,0.6,0.2c0.1,0.1,0.3,0.3,0.3,0.5l17.6,28.7c0.2,0.6,0.2,0.9,0,1.1
			c-0.2,0.1-0.5,0.2-0.7,0.2h-5.6c-0.3,0-0.5-0.1-0.6-0.3c-0.1-0.1-0.3-0.3-0.3-0.5l-17.6-28.7"/>
	</g>
	<path class="st1" d="M40.3,60.7H14c-0.2,0-0.4-0.2-0.4-0.4V27.9l15.4-3.7c0.5-0.1,1.1-0.5,1.4-0.9L40.7,9.7v50.5
		C40.7,60.5,40.5,60.7,40.3,60.7 M83.4,33.5l-7-16.9c-0.2-0.4-0.7-1-1.2-1.2L44,1.3c-0.4-0.2-0.9-0.4-1-0.4c-0.1,0-0.6,0.2-1,0.4
		L11.8,15.4c-0.4,0.2-1,0.7-1.3,1.1L0.7,30.4c-0.3,0.4-0.1,0.6,0.4,0.5l8.2-2v34.8c0,0.5,0.4,0.9,0.9,0.9h65c0.5,0,0.9-0.4,0.9-0.9
		V36.4L51.6,27c-0.2-0.1-0.5-0.3-0.5-0.6l-2.2-11.2c0-0.2,0-0.3,0.1-0.1l4.8,7.5c0.1,0.2,0.4,0.4,0.6,0.5L83,34
		C83.4,34.1,83.6,33.9,83.4,33.5"/>
	<path class="st1" d="M371.7,21.4c0,2.1-1.7,3.8-3.9,3.8c-2.2,0-3.9-1.7-3.9-3.8c0-2.1,1.7-3.8,3.9-3.8
		C370,17.7,371.7,19.3,371.7,21.4z M365.1,21.4c0,1.6,1.2,2.8,2.7,2.8c1.6,0,2.7-1.2,2.7-2.8c0-1.6-1.2-2.8-2.8-2.8
		C366.3,18.6,365.1,19.9,365.1,21.4z M367.4,23.2h-1.1v-3.5c0.2,0,0.8-0.1,1.5-0.1c0.8,0,1.1,0.1,1.4,0.3c0.2,0.2,0.4,0.4,0.4,0.8
		c0,0.3-0.3,0.7-0.8,0.8v0c0.4,0.1,0.6,0.4,0.7,0.9c0.1,0.5,0.2,0.7,0.2,0.8h-1.2c-0.1-0.1-0.2-0.4-0.2-0.7
		c-0.1-0.3-0.2-0.5-0.6-0.5h-0.3V23.2z M367.4,21.2h0.3c0.4,0,0.7-0.2,0.7-0.4c0-0.3-0.2-0.4-0.6-0.4c-0.1,0-0.3,0-0.4,0V21.2z"/>
</g>
</svg>
